<?xml version="1.0" encoding="UTF-8"?>
<!DOCTYPE svg PUBLIC "-//W3C//DTD SVG 1.1//EN" "http://www.w3.org/Graphics/SVG/1.1/DTD/svg11.dtd">
<!-- Creator: CorelDRAW -->
<svg xmlns="http://www.w3.org/2000/svg" xml:space="preserve" width="80.9867mm" height="76.1231mm" version="1.1" style="shape-rendering:geometricPrecision; text-rendering:geometricPrecision; image-rendering:optimizeQuality; fill-rule:evenodd; clip-rule:evenodd"
viewBox="0 0 18061.38 16976.72"
 xmlns:xlink="http://www.w3.org/1999/xlink"
 xmlns:xodm="http://www.corel.com/coreldraw/odm/2003">
 <defs>
  <style type="text/css">
   <![CDATA[
    .fil6 {fill:#5DAAA0}
    .fil3 {fill:url(#id0)}
    .fil4 {fill:url(#id1)}
    .fil1 {fill:url(#id2)}
    .fil2 {fill:url(#id3)}
    .fil5 {fill:url(#id4)}
    .fil0 {fill:url(#id5)}
   ]]>
  </style>
  <linearGradient id="id0" gradientUnits="userSpaceOnUse" x1="7453.3" y1="9227.33" x2="9030.7" y2="6166.83">
   <stop offset="0" style="stop-opacity:1; stop-color:#40949C"/>
   <stop offset="0.470588" style="stop-opacity:1; stop-color:#316D7E"/>
   <stop offset="1" style="stop-opacity:1; stop-color:#214560"/>
  </linearGradient>
  <linearGradient id="id1" gradientUnits="userSpaceOnUse" xlink:href="#id0" x1="9660.92" y1="3966.24" x2="5599.81" y2="5911.93">
  </linearGradient>
  <linearGradient id="id2" gradientUnits="userSpaceOnUse" x1="2159.36" y1="14949.03" x2="18320.7" y2="1109.2">
   <stop offset="0" style="stop-opacity:1; stop-color:#E6E6E6"/>
   <stop offset="1" style="stop-opacity:1; stop-color:white"/>
  </linearGradient>
  <linearGradient id="id3" gradientUnits="userSpaceOnUse" xlink:href="#id0" x1="3101.74" y1="12398.36" x2="7301.47" y2="9928.92">
  </linearGradient>
  <linearGradient id="id4" gradientUnits="userSpaceOnUse" xlink:href="#id0" x1="11639.06" y1="13670.65" x2="12506.7" y2="8622.69">
  </linearGradient>
  <linearGradient id="id5" gradientUnits="userSpaceOnUse" x1="8352.84" y1="16391.16" x2="17452.5" y2="-661.36">
   <stop offset="0" style="stop-opacity:1; stop-color:#105361"/>
   <stop offset="0.470588" style="stop-opacity:1; stop-color:#528A80"/>
   <stop offset="1" style="stop-opacity:1; stop-color:#94C19F"/>
  </linearGradient>
 </defs>
 <g id="Layer_x0020_1">
  <metadata id="CorelCorpID_0Corel-Layer"/>
  <path class="fil0" d="M2290.16 0l13481.06 0c1259.62,0 2290.16,1030.56 2290.16,2290.16l0 12396.4c0,1259.62 -1030.54,2290.16 -2290.16,2290.16l-13481.06 0c-1259.6,0 -2290.16,-1030.54 -2290.16,-2290.16l0 -12396.4c0,-1259.6 1030.56,-2290.16 2290.16,-2290.16zm-0.11 16391.16l13481.29 0c937.38,0 1704.38,-767 1704.38,-1704.49l0 -12396.51c0,-937.49 -767,-1704.49 -1704.38,-1704.49l-13481.29 0c-937.49,0 -1704.49,767 -1704.49,1704.49l0 12396.51c0,937.49 767,1704.49 1704.49,1704.49z"/>
  <path class="fil1" d="M15771.33 585.66l-13481.29 0c-937.49,0 -1704.49,767 -1704.49,1704.49l0 12396.51c0,937.49 767,1704.49 1704.49,1704.49l13481.29 0c937.38,0 1704.38,-767 1704.38,-1704.49l0 -12396.51c0,-937.49 -767,-1704.49 -1704.38,-1704.49z"/>
  <g id="_2789436446560">
   <path class="fil2" d="M2987.87 12075.3l0 217.24c39.41,51.7 46.81,76 113.89,105.87 366.68,163.16 788.48,262.69 1180.76,341.33 501.16,100.47 1023.8,151.61 1545.26,195.92 1284.69,109.19 2105.28,47.86 3353.72,0.94 8.92,-311.89 -9.77,-651.99 -10.35,-968.61 -0.51,-289.43 20.79,-2726.18 2.83,-2875.73 -55.66,54.51 -99.8,130.29 -148.82,175.4 -63.49,58.43 -94.72,96.21 -156.89,156.71 -334.5,325.4 -900.47,532.7 -1372.93,519.56 -553.88,-15.43 -950.63,-250.58 -1313.7,-577.5 -129.64,-116.73 -200.09,-233.86 -293.24,-336.15 -114.7,30.62 -945.59,384.19 -1054.27,432.79 -323.26,144.6 -629.55,279.48 -897.29,505.11 -286.71,241.62 -491.35,562.69 -649.65,921.64 -117.2,265.72 -206.18,572.95 -256.16,865.59 -13.07,76.49 -25.2,269.47 -43.18,319.9z"/>
   <path class="fil3" d="M5528.76 6437.93c-300.89,102.54 -196.48,812.49 -85.21,1091.93 79.57,199.85 262.96,502.34 415.9,635.95 46.9,40.95 66.37,162.42 97.01,241.3 639.68,1646.33 2634.18,1539.66 3195.2,-4.62 132.4,-364.43 58.43,-149.82 265.79,-434.95 90.88,-125 180.13,-272.3 246.9,-442.11 110.73,-281.6 222.37,-913.61 -85.44,-1094.25 -5,-196.17 30.02,-193.44 -90.34,-299.18 -65.3,-57.38 -110.15,-124.84 -185.66,-188.92 -730.71,-619.9 -2211.77,-621.28 -3044,-276.27 -260.68,108.07 -481.05,277.39 -650.83,473.6 -103.66,119.8 -78.3,86.75 -79.33,297.5z"/>
   <path class="fil4" d="M7418.89 4140.88c1.69,-152.39 -59.59,-468.04 125.49,-478.73 203.86,-11.8 139.83,317.78 140.48,478.95 162.33,-0.29 476.79,-60.28 482.38,128.23 5.75,193.87 -306.27,135.73 -476.83,136.93 -28.75,152.72 70.05,469.54 -134.52,474.69 -199,5 -125.63,-315.9 -138.74,-472.53 -148.17,-11.35 -471.9,64.18 -477.75,-127.34 -5.75,-188.63 264.68,-141.66 479.49,-140.21zm-963.88 -706.67c-311.64,77.68 -739.72,240.68 -946.95,467.33 -86.42,94.51 -162.38,138.36 -168.6,306.98 -14.72,398.75 3.88,991.49 5.49,1426.61 0.54,150.69 -31.91,332.32 113.6,356.74 88.69,14.9 157.96,-118.27 261.98,-198.08 88.63,-68.04 165.5,-133.45 275.2,-196.17 758.28,-433.43 2355.08,-435.33 3126.05,6.98 264.59,151.79 330.51,271.03 453.75,368.47 29.19,23.06 44.54,28.7 86.71,16.41 132.07,-38.51 99.58,-224.38 99.91,-366.44 0.38,-161.15 0.98,-322.28 1.69,-483.43 1.32,-300.09 18.18,-648.62 2.5,-942.89 -8.9,-167.02 -179.53,-319.69 -295.36,-403.73 -765.86,-555.36 -2133.8,-578.66 -3015.97,-358.79z"/>
   <path class="fil5" d="M10036.97 9567.48c41.93,-9.08 1169.9,-9.9 2255.03,-8.61 1085.11,-1.29 2213.08,-0.47 2255.01,8.61 188.45,40.77 152.28,208.05 152.28,389.83 0,393.47 12.49,3096.14 -3.95,3189.76 -30.66,174.58 -222.84,149.91 -398.91,149.91 -35.64,0 -1000.34,3.28 -2004.43,4.46 -1004.11,-1.18 -1968.81,-4.46 -2004.45,-4.46 -176.07,0 -368.25,24.67 -398.89,-149.91 -16.46,-93.62 -3.97,-2796.29 -3.97,-3189.76 0,-181.78 -36.15,-349.07 152.28,-389.83zm3222.7 2572.3c101.38,44.94 65.86,255.13 65.86,379.69 0,76.85 8.83,402.21 -7.81,447.77 -41.48,113.69 -268.76,71.74 -386.96,71.74 -579.84,0 -515.57,59.86 -515.57,-386.55 0,-588.38 -63.87,-524.31 394.72,-524.31 89.5,0 390.17,-14.74 449.76,11.66zm320.1 61.4c36.78,-112.2 266.37,-73.06 390.37,-73.06 87.82,0 390.52,-14.27 447.46,12.93 99.58,47.66 68.15,197.3 68.15,378.41 0,584.46 59.77,519.52 -394.76,519.52 -76.78,0 -401.21,9.75 -449.07,-10.17 -105.78,-44.05 -70.45,-251.38 -70.45,-376.39 0,-80.89 -9.37,-397.3 8.3,-451.25zm-8.76 -466.53c-0.94,-113.72 -5.73,-640.3 8.27,-682.52 36.95,-111.6 214.14,-79.44 378.77,-79.44 85.53,0 389.94,-11.08 446.75,7.34 115.05,37.31 80.96,169.67 80.96,379.24 0,80.11 9.61,397.64 -7.36,448.02 -38.56,114.41 -236.62,79.71 -375.31,79.71 -385.73,0 -530.33,56.65 -532.07,-152.34zm-773.18 -762.14c76.9,0 402.68,-8.59 449.11,5.84 121.32,37.73 78.72,259.84 78.72,380.91 0,582.85 63.87,527.9 -382.81,527.9 -582.39,0 -527.95,63.45 -527.95,-382.9 0,-590.04 -64.85,-531.76 382.92,-531.76zm462.54 -1141.44c100.92,44.98 65.17,257.23 65.17,380.04 0,588.43 59.1,519.52 -394.76,519.52 -579.58,0 -515.57,59.19 -515.57,-386.55 0,-588.36 -63.58,-524.31 394.72,-524.31 88.16,0 392.51,-14.52 450.45,11.31zm311.11 513.01c0,-587.8 -62.6,-524.31 398.66,-524.31 85.91,0 392.98,-14.03 447.97,12.49 102.81,49.55 67.64,251.3 67.64,378.86 0,583.72 60.08,519.52 -394.76,519.52 -575.63,0 -519.52,59.26 -519.52,-386.55zm680.89 -1510.71c-33.47,212.49 -309.5,307.94 -469.52,150.98 -71.97,-70.58 -83.52,-185.82 -83.25,-320.18 0.45,-225.14 -58.36,-518.25 191.73,-598.55 109.23,-35.08 231.42,8.27 287.36,63.67 69.67,69.02 77.65,188.43 77.52,317.35 -0.11,103.75 10.93,292.89 -3.84,386.73zm-1960.36 -355.62l-1248.45 -0.54c5.98,187.74 23.82,376.1 -59.05,533.7 -139.21,264.72 -591.62,301.47 -759.73,-5.82 -80.6,-147.37 -66.46,-348 -57.96,-525.32 -122.32,-5.62 -251.56,-0.98 -374.78,-1.52 -130.49,-0.56 -226.23,12.8 -265.01,114.99 -26.74,70.45 -12.89,616.11 -12.89,735.64l-0.31 4109.46c0.29,86.8 5.93,146.97 80.55,196.72l55.73 37.22 2641.9 -2.03 2641.88 2.03 55.73 -37.22c74.62,-49.76 80.26,-109.92 80.58,-196.72l-0.33 -4109.46c0,-119.54 13.85,-665.19 -12.89,-735.64 -38.76,-102.19 -134.52,-115.54 -265.01,-114.99 -123.22,0.54 -252.45,-4.1 -374.78,1.52 8.5,177.32 22.66,377.95 -57.96,525.32 -168.11,307.29 -620.52,270.54 -759.73,5.82 -82.87,-157.61 -65.01,-345.97 -59.03,-533.7l-1248.45 0.54zm-967.67 3662.04c-101.41,44.94 -65.88,255.13 -65.88,379.69 0,76.85 -8.83,402.21 7.81,447.77 41.5,113.69 268.78,71.74 386.96,71.74 579.87,0 515.59,59.86 515.59,-386.55 0,-588.38 63.87,-524.31 -394.72,-524.31 -89.52,0 -390.19,-14.74 -449.76,11.66zm-320.12 61.4c-36.78,-112.2 -266.37,-73.06 -390.37,-73.06 -87.82,0 -390.52,-14.27 -447.44,12.93 -99.6,47.66 -68.18,197.3 -68.18,378.41 0,584.46 -59.77,519.52 394.76,519.52 76.78,0 401.21,9.75 449.07,-10.17 105.78,-44.05 70.45,-251.38 70.45,-376.39 0,-80.89 9.39,-397.3 -8.3,-451.25zm8.76 -466.53c0.94,-113.72 5.73,-640.3 -8.25,-682.52 -36.98,-111.6 -214.14,-79.44 -378.77,-79.44 -85.53,0 -389.97,-11.08 -446.77,7.34 -115.05,37.31 -80.96,169.67 -80.96,379.24 0,80.11 -9.61,397.64 7.36,448.02 38.58,114.41 236.64,79.71 375.34,79.71 385.71,0 530.31,56.65 532.05,-152.34zm773.2 -762.14c-76.92,0 -402.7,-8.59 -449.11,5.84 -121.32,37.73 -78.75,259.84 -78.75,380.91 0,582.85 -63.87,527.9 382.83,527.9 582.36,0 527.92,63.45 527.92,-382.9 0,-590.04 64.85,-531.76 -382.9,-531.76zm-462.56 -1141.44c-100.89,44.98 -65.17,257.23 -65.17,380.04 0,588.43 -59.1,519.52 394.76,519.52 579.58,0 515.59,59.19 515.59,-386.55 0,-588.36 63.56,-524.31 -394.72,-524.31 -88.18,0 -392.53,-14.52 -450.47,11.31zm-311.11 513.01c0,-587.8 62.62,-524.31 -398.66,-524.31 -85.88,0 -392.98,-14.03 -447.97,12.49 -102.81,49.55 -67.64,251.3 -67.64,378.86 0,583.72 -60.08,519.52 394.76,519.52 575.63,0 519.52,59.26 519.52,-386.55zm-680.87 -1510.71c33.47,212.49 309.48,307.94 469.49,150.98 71.97,-70.58 83.52,-185.82 83.25,-320.18 -0.45,-225.14 58.36,-518.25 -191.71,-598.55 -109.26,-35.08 -231.45,8.27 -287.36,63.67 -69.69,69.02 -77.68,188.43 -77.54,317.35 0.11,103.75 -10.93,292.89 3.86,386.73z"/>
   <path class="fil6" d="M12809.92 9819.76c-458.3,0 -394.72,-64.05 -394.72,524.31 0,445.74 -64.01,386.55 515.57,386.55 453.86,0 394.76,68.91 394.76,-519.52 0,-122.82 35.75,-335.06 -65.17,-380.04 -57.94,-25.83 -362.29,-11.31 -450.45,-11.31z"/>
   <path class="fil6" d="M12169.08 11504.27c0,-590.04 64.85,-531.76 -382.9,-531.76 -76.92,0 -402.7,-8.59 -449.11,5.84 -121.32,37.73 -78.75,259.84 -78.75,380.91 0,582.85 -63.87,527.9 382.83,527.9 582.36,0 527.92,63.45 527.92,-382.9z"/>
   <path class="fil6" d="M13579.77 12201.17c-17.66,53.95 -8.3,370.36 -8.3,451.25 0,125 -35.33,332.34 70.45,376.39 47.86,19.92 372.28,10.17 449.07,10.17 454.53,0 394.76,64.94 394.76,-519.52 0,-181.11 31.42,-330.76 -68.15,-378.41 -56.94,-27.21 -359.64,-12.93 -447.46,-12.93 -124,0 -353.59,-39.14 -390.37,73.06z"/>
  </g>
 </g>
</svg>
